<svg xmlns="http://www.w3.org/2000/svg" xmlns:xlink="http://www.w3.org/1999/xlink" id="processonSvg1000" viewBox="18.0 48.0 835.0 487.0" width="835.0" height="487.0"><defs id="ProcessOnDefs1001"><marker id="ProcessOnMarker1031" markerUnits="userSpaceOnUse" orient="auto" markerWidth="16.23606797749979" markerHeight="10.550836550532098" viewBox="-1.0 -1.3763819204711736 16.23606797749979 10.550836550532098" refX="-1.0" refY="3.8990363547948754"><path id="ProcessOnPath1032" d="M12.0 3.8990363547948754L0.0 7.798072709589751V0.0Z" stroke="#323232" stroke-width="2.0" fill="#323232" transform="matrix(1.0,0.0,0.0,1.0,0.0,0.0)"/></marker><marker id="ProcessOnMarker1035" markerUnits="userSpaceOnUse" orient="auto" markerWidth="16.23606797749979" markerHeight="10.550836550532098" viewBox="-1.0 -1.3763819204711736 16.23606797749979 10.550836550532098" refX="-1.0" refY="3.8990363547948754"><path id="ProcessOnPath1036" d="M12.0 3.8990363547948754L0.0 7.798072709589751V0.0Z" stroke="#323232" stroke-width="2.0" fill="#323232" transform="matrix(1.0,0.0,0.0,1.0,0.0,0.0)"/></marker><marker id="ProcessOnMarker1043" markerUnits="userSpaceOnUse" orient="auto" markerWidth="16.23606797749979" markerHeight="10.550836550532098" viewBox="-1.0 -1.3763819204711736 16.23606797749979 10.550836550532098" refX="-1.0" refY="3.8990363547948754"><path id="ProcessOnPath1044" d="M12.0 3.8990363547948754L0.0 7.798072709589751V0.0Z" stroke="#323232" stroke-width="2.0" fill="#323232" transform="matrix(1.0,0.0,0.0,1.0,0.0,0.0)"/></marker><marker id="ProcessOnMarker1051" markerUnits="userSpaceOnUse" orient="auto" markerWidth="16.23606797749979" markerHeight="10.550836550532098" viewBox="-1.0 -1.3763819204711736 16.23606797749979 10.550836550532098" refX="-1.0" refY="3.8990363547948754"><path id="ProcessOnPath1052" d="M12.0 3.8990363547948754L0.0 7.798072709589751V0.0Z" stroke="#323232" stroke-width="2.0" fill="#323232" transform="matrix(1.0,0.0,0.0,1.0,0.0,0.0)"/></marker><marker id="ProcessOnMarker1059" markerUnits="userSpaceOnUse" orient="auto" markerWidth="16.23606797749979" markerHeight="10.550836550532098" viewBox="-1.0 -1.3763819204711736 16.23606797749979 10.550836550532098" refX="-1.0" refY="3.8990363547948754"><path id="ProcessOnPath1060" d="M12.0 3.8990363547948754L0.0 7.798072709589751V0.0Z" stroke="#323232" stroke-width="2.0" fill="#323232" transform="matrix(1.0,0.0,0.0,1.0,0.0,0.0)"/></marker><marker id="ProcessOnMarker1063" markerUnits="userSpaceOnUse" orient="auto" markerWidth="16.23606797749979" markerHeight="10.550836550532098" viewBox="-1.0 -1.3763819204711736 16.23606797749979 10.550836550532098" refX="-1.0" refY="3.8990363547948754"><path id="ProcessOnPath1064" d="M12.0 3.8990363547948754L0.0 7.798072709589751V0.0Z" stroke="#323232" stroke-width="2.0" fill="#323232" transform="matrix(1.0,0.0,0.0,1.0,0.0,0.0)"/></marker><marker id="ProcessOnMarker1075" markerUnits="userSpaceOnUse" orient="auto" markerWidth="16.23606797749979" markerHeight="10.550836550532098" viewBox="-1.0 -1.3763819204711736 16.23606797749979 10.550836550532098" refX="-1.0" refY="3.8990363547948754"><path id="ProcessOnPath1076" d="M12.0 3.8990363547948754L0.0 7.798072709589751V0.0Z" stroke="#323232" stroke-width="2.0" fill="#323232" transform="matrix(1.0,0.0,0.0,1.0,0.0,0.0)"/></marker></defs><g id="ProcessOnG1002"><path id="ProcessOnPath1003" d="M18.0 48.0H853.0V535.0H18.0V48.0Z" fill="none"/><g id="ProcessOnG1004"><g id="ProcessOnG1005" transform="matrix(1.0,0.0,0.0,1.0,276.0,175.0)" opacity="1.0"><path id="ProcessOnPath1006" d="M0.0 4.0Q0.0 0.0 4.0 0.0L156.0 0.0Q160.0 0.0 160.0 4.0L160.0 43.0Q160.0 47.0 156.0 47.0L4.0 47.0Q0.0 47.0 0.0 43.0Z" stroke="#323232" stroke-width="2.0" stroke-dasharray="none" opacity="1.0" fill="#ffffff"/><g id="ProcessOnG1007" transform="matrix(1.0,0.0,0.0,1.0,10.0,15.375)"><text id="ProcessOnText1008" fill="#000000" font-weight="normal" font-style="normal" text-decoration="blink" font-family="微软雅黑" text-anchor="middle" font-size="13" x="70.0" y="13.325">CIHOME</text></g></g><g id="ProcessOnG1009" transform="matrix(1.0,0.0,0.0,1.0,673.0,175.0)" opacity="1.0"><path id="ProcessOnPath1010" d="M0.0 4.0Q0.0 0.0 4.0 0.0L156.0 0.0Q160.0 0.0 160.0 4.0L160.0 43.0Q160.0 47.0 156.0 47.0L4.0 47.0Q0.0 47.0 0.0 43.0Z" stroke="#323232" stroke-width="2.0" stroke-dasharray="none" opacity="1.0" fill="#ffffff"/><g id="ProcessOnG1011" transform="matrix(1.0,0.0,0.0,1.0,10.0,15.375)"><text id="ProcessOnText1012" fill="#000000" font-weight="normal" font-style="normal" text-decoration="blink" font-family="微软雅黑" text-anchor="middle" font-size="13" x="70.0" y="13.325">FTP</text></g></g><g id="ProcessOnG1013" transform="matrix(1.0,0.0,0.0,1.0,38.0,175.0)" opacity="1.0"><path id="ProcessOnPath1014" d="M0.0 4.0Q0.0 0.0 4.0 0.0L156.0 0.0Q160.0 0.0 160.0 4.0L160.0 43.0Q160.0 47.0 156.0 47.0L4.0 47.0Q0.0 47.0 0.0 43.0Z" stroke="#323232" stroke-width="2.0" stroke-dasharray="none" opacity="1.0" fill="#ffffff"/><g id="ProcessOnG1015" transform="matrix(1.0,0.0,0.0,1.0,10.0,15.375)"><text id="ProcessOnText1016" fill="#000000" font-weight="normal" font-style="normal" text-decoration="blink" font-family="微软雅黑" text-anchor="middle" font-size="13" x="70.0" y="13.325">GitHub</text></g></g><g id="ProcessOnG1017" transform="matrix(1.0,0.0,0.0,1.0,513.0,68.0)" opacity="1.0"><path id="ProcessOnPath1018" d="M0.0 4.0Q0.0 0.0 4.0 0.0L156.0 0.0Q160.0 0.0 160.0 4.0L160.0 43.0Q160.0 47.0 156.0 47.0L4.0 47.0Q0.0 47.0 0.0 43.0Z" stroke="#323232" stroke-width="2.0" stroke-dasharray="none" opacity="1.0" fill="#ffffff"/><g id="ProcessOnG1019" transform="matrix(1.0,0.0,0.0,1.0,10.0,15.375)"><text id="ProcessOnText1020" fill="#000000" font-weight="normal" font-style="normal" text-decoration="blink" font-family="微软雅黑" text-anchor="middle" font-size="13" x="70.0" y="13.325">Jenkins</text></g></g><g id="ProcessOnG1021" transform="matrix(1.0,0.0,0.0,1.0,513.0,289.0)" opacity="1.0"><path id="ProcessOnPath1022" d="M0.0 4.0Q0.0 0.0 4.0 0.0L156.0 0.0Q160.0 0.0 160.0 4.0L160.0 43.0Q160.0 47.0 156.0 47.0L4.0 47.0Q0.0 47.0 0.0 43.0Z" stroke="#323232" stroke-width="2.0" stroke-dasharray="none" opacity="1.0" fill="#ffffff"/><g id="ProcessOnG1023" transform="matrix(1.0,0.0,0.0,1.0,10.0,15.375)"><text id="ProcessOnText1024" fill="#000000" font-weight="normal" font-style="normal" text-decoration="blink" font-family="微软雅黑" text-anchor="middle" font-size="13" x="70.0" y="13.325">RELEASE</text></g></g><g id="ProcessOnG1025" transform="matrix(1.0,0.0,0.0,1.0,223.0,175.0)" opacity="1.0"><path id="ProcessOnPath1026" d="M0.0 0.0L30.0 0.0L30.0 20.0L0.0 20.0Z" stroke="#323232" stroke-width="0.0" stroke-dasharray="none" opacity="1.0" fill="none"/><g id="ProcessOnG1027" transform="matrix(1.0,0.0,0.0,1.0,0.0,1.875)"><text id="ProcessOnText1028" fill="#000000" font-weight="normal" font-style="normal" text-decoration="blink" font-family="微软雅黑" text-anchor="middle" font-size="13" x="15.0" y="13.325">1</text></g></g><g id="ProcessOnG1029"><path id="ProcessOnPath1030" d="M198.0 198.5L237.0 198.5L237.0 198.5L260.7639320225002 198.5" stroke="#323232" stroke-width="2.0" stroke-dasharray="none" fill="none" marker-end="url(#ProcessOnMarker1031)"/></g><g id="ProcessOnG1033"><path id="ProcessOnPath1034" d="M436.0 198.5L474.5 198.5L474.5 91.5L497.7639320225002 91.5" stroke="#323232" stroke-width="2.0" stroke-dasharray="none" fill="none" marker-end="url(#ProcessOnMarker1035)"/></g><g id="ProcessOnG1037" transform="matrix(1.0,0.0,0.0,1.0,446.0,131.0)" opacity="1.0"><path id="ProcessOnPath1038" d="M0.0 0.0L30.0 0.0L30.0 20.0L0.0 20.0Z" stroke="#323232" stroke-width="0.0" stroke-dasharray="none" opacity="1.0" fill="none"/><g id="ProcessOnG1039" transform="matrix(1.0,0.0,0.0,1.0,0.0,1.875)"><text id="ProcessOnText1040" fill="#000000" font-weight="normal" font-style="normal" text-decoration="blink" font-family="微软雅黑" text-anchor="middle" font-size="13" x="15.0" y="13.325">2</text></g></g><g id="ProcessOnG1041"><path id="ProcessOnPath1042" d="M673.0 91.5L753.0 91.5L753.0 159.7639320225002" stroke="#323232" stroke-width="2.0" stroke-dasharray="none" fill="none" marker-end="url(#ProcessOnMarker1043)"/></g><g id="ProcessOnG1045" transform="matrix(1.0,0.0,0.0,1.0,721.0,121.0)" opacity="1.0"><path id="ProcessOnPath1046" d="M0.0 0.0L30.0 0.0L30.0 20.0L0.0 20.0Z" stroke="#323232" stroke-width="0.0" stroke-dasharray="none" opacity="1.0" fill="none"/><g id="ProcessOnG1047" transform="matrix(1.0,0.0,0.0,1.0,0.0,1.875)"><text id="ProcessOnText1048" fill="#000000" font-weight="normal" font-style="normal" text-decoration="blink" font-family="微软雅黑" text-anchor="middle" font-size="13" x="15.0" y="13.325">3</text></g></g><g id="ProcessOnG1049"><path id="ProcessOnPath1050" d="M513.0 91.5L474.5 91.5L474.5 198.5L451.2360679774998 198.5" stroke="#323232" stroke-width="2.0" stroke-dasharray="none" fill="none" marker-end="url(#ProcessOnMarker1051)"/></g><g id="ProcessOnG1053" transform="matrix(1.0,0.0,0.0,1.0,476.0,131.0)" opacity="1.0"><path id="ProcessOnPath1054" d="M0.0 0.0L30.0 0.0L30.0 20.0L0.0 20.0Z" stroke="#323232" stroke-width="0.0" stroke-dasharray="none" opacity="1.0" fill="none"/><g id="ProcessOnG1055" transform="matrix(1.0,0.0,0.0,1.0,0.0,1.875)"><text id="ProcessOnText1056" fill="#000000" font-weight="normal" font-style="normal" text-decoration="blink" font-family="微软雅黑" text-anchor="middle" font-size="13" x="15.0" y="13.325">4</text></g></g><g id="ProcessOnG1057"><path id="ProcessOnPath1058" d="M436.0 198.5L474.5 198.5L474.5 312.5L497.7639320225002 312.5" stroke="#323232" stroke-width="2.0" stroke-dasharray="none" fill="none" marker-end="url(#ProcessOnMarker1059)"/></g><g id="ProcessOnG1061"><path id="ProcessOnPath1062" d="M513.0 312.5L474.5 312.5L474.5 198.5L451.2360679774998 198.5" stroke="#323232" stroke-width="2.0" stroke-dasharray="none" fill="none" marker-end="url(#ProcessOnMarker1063)"/></g><g id="ProcessOnG1065" transform="matrix(1.0,0.0,0.0,1.0,443.0,251.0)" opacity="1.0"><path id="ProcessOnPath1066" d="M0.0 0.0L30.0 0.0L30.0 20.0L0.0 20.0Z" stroke="#323232" stroke-width="0.0" stroke-dasharray="none" opacity="1.0" fill="none"/><g id="ProcessOnG1067" transform="matrix(1.0,0.0,0.0,1.0,0.0,1.875)"><text id="ProcessOnText1068" fill="#000000" font-weight="normal" font-style="normal" text-decoration="blink" font-family="微软雅黑" text-anchor="middle" font-size="13" x="15.0" y="13.325">5</text></g></g><g id="ProcessOnG1069" transform="matrix(1.0,0.0,0.0,1.0,473.0,251.0)" opacity="1.0"><path id="ProcessOnPath1070" d="M0.0 0.0L30.0 0.0L30.0 20.0L0.0 20.0Z" stroke="#323232" stroke-width="0.0" stroke-dasharray="none" opacity="1.0" fill="none"/><g id="ProcessOnG1071" transform="matrix(1.0,0.0,0.0,1.0,0.0,1.875)"><text id="ProcessOnText1072" fill="#000000" font-weight="normal" font-style="normal" text-decoration="blink" font-family="微软雅黑" text-anchor="middle" font-size="13" x="15.0" y="13.325">7</text></g></g><g id="ProcessOnG1073"><path id="ProcessOnPath1074" d="M673.0 312.5L753.0 312.5L753.0 237.2360679774998" stroke="#323232" stroke-width="2.0" stroke-dasharray="none" fill="none" marker-end="url(#ProcessOnMarker1075)"/></g><g id="ProcessOnG1077" transform="matrix(1.0,0.0,0.0,1.0,721.0,265.0)" opacity="1.0"><path id="ProcessOnPath1078" d="M0.0 0.0L30.0 0.0L30.0 20.0L0.0 20.0Z" stroke="#323232" stroke-width="0.0" stroke-dasharray="none" opacity="1.0" fill="none"/><g id="ProcessOnG1079" transform="matrix(1.0,0.0,0.0,1.0,0.0,1.875)"><text id="ProcessOnText1080" fill="#000000" font-weight="normal" font-style="normal" text-decoration="blink" font-family="微软雅黑" text-anchor="middle" font-size="13" x="15.0" y="13.325">6</text></g></g><g id="ProcessOnG1081" transform="matrix(1.0,0.0,0.0,1.0,96.0,306.0)" opacity="1.0"><path id="ProcessOnPath1082" d="M0.0 0.0L362.0 0.0L362.0 209.0L0.0 209.0Z" stroke="#323232" stroke-width="0.0" stroke-dasharray="none" opacity="1.0" fill="none"/><g id="ProcessOnG1083" transform="matrix(1.0,0.0,0.0,1.0,0.0,47.625)"><text id="ProcessOnText1084" fill="#000000" font-weight="normal" font-style="normal" text-decoration="blink" font-family="微软雅黑" text-anchor="start" font-size="13" x="0.0" y="13.325">1. 提交代码，cihome通过hook获得消息</text><text id="ProcessOnText1085" fill="#000000" font-weight="normal" font-style="normal" text-decoration="blink" font-family="微软雅黑" text-anchor="start" font-size="13" x="0.0" y="29.575">2. cihome调取jenkins接口触发编译</text><text id="ProcessOnText1086" fill="#000000" font-weight="normal" font-style="normal" text-decoration="blink" font-family="微软雅黑" text-anchor="start" font-size="13" x="0.0" y="45.825">3. jenkins编译结束，调取ftp接口上传产出</text><text id="ProcessOnText1087" fill="#000000" font-weight="normal" font-style="normal" text-decoration="blink" font-family="微软雅黑" text-anchor="start" font-size="13" x="0.0" y="62.075">4. jenkins返回编译信息给cihome</text><text id="ProcessOnText1088" fill="#000000" font-weight="normal" font-style="normal" text-decoration="blink" font-family="微软雅黑" text-anchor="start" font-size="13" x="0.0" y="78.325">5. cihome执行发布</text><text id="ProcessOnText1089" fill="#000000" font-weight="normal" font-style="normal" text-decoration="blink" font-family="微软雅黑" text-anchor="start" font-size="13" x="0.0" y="94.575">6. release调取ftp接口执行发布操作</text><text id="ProcessOnText1090" fill="#000000" font-weight="normal" font-style="normal" text-decoration="blink" font-family="微软雅黑" text-anchor="start" font-size="13" x="0.0" y="110.825">7. release回调cihome接口返回发布信息</text></g></g></g></g></svg>